<svg width="782" height="139" viewBox="0 0 782 139" fill="none" xmlns="http://www.w3.org/2000/svg">
<path d="M328.012 35.0418L389 0.574327L449.988 35.0417V103.958L389 138.426L328.012 103.958V35.0418Z" stroke="#F1B61C"/>
<path d="M355 91V45.5H367.844C371.802 45.5 375.302 46.375 378.344 48.125C381.385 49.875 383.729 52.3646 385.375 55.5938C387.042 58.8229 387.885 62.5312 387.906 66.7188V69.625C387.906 73.9167 387.073 77.6771 385.406 80.9062C383.76 84.1354 381.396 86.6146 378.312 88.3438C375.25 90.0729 371.677 90.9583 367.594 91H355ZM361 50.4375V86.0938H367.312C371.938 86.0938 375.531 84.6562 378.094 81.7812C380.677 78.9062 381.969 74.8125 381.969 69.5V66.8438C381.969 61.6771 380.75 57.6667 378.312 54.8125C375.896 51.9375 372.458 50.4792 368 50.4375H361ZM400.75 86.0938H426.781V91H393.656V86.5L418.594 50.4375H394.062V45.5H425.781V49.9062L400.75 86.0938Z" fill="white" fill-opacity="0.1"/>
<line x1="2.07024e-09" y1="69.5" x2="300" y2="69.5" stroke="#F1B61C"/>
<line x1="476" y1="69.5" x2="782" y2="69.5" stroke="#F1B61C"/>
</svg>
